<?xml version="1.0" standalone="no"?>
<!DOCTYPE svg PUBLIC "-//W3C//DTD SVG 20010904//EN"
 "http://www.w3.org/TR/2001/REC-SVG-20010904/DTD/svg10.dtd">
<svg version="1.0" xmlns="http://www.w3.org/2000/svg"
 width="2142.000000pt" height="2142.000000pt" viewBox="0 0 2142.000000 2142.000000"
 preserveAspectRatio="xMidYMid meet">
<metadata>
Created by potrace 1.11, written by Peter Selinger 2001-2013
</metadata>
<g transform="translate(0.000000,2142.000000) scale(0.100000,-0.100000)"
fill="#000000" stroke="none">
<path d="M10355 19780 c-1568 -59 -2867 -538 -3186 -1173 -41 -80 -79 -206
-79 -258 0 -26 -15 -39 -137 -120 -909 -607 -1649 -1430 -2156 -2399 -333
-638 -563 -1372 -656 -2095 -36 -280 -43 -392 -48 -755 l-4 -354 -58 -12
c-166 -34 -301 -166 -346 -339 -13 -52 -15 -344 -15 -2530 0 -2186 2 -2478 15
-2530 49 -188 197 -320 386 -345 97 -12 505 -12 594 0 155 23 282 115 352 257
l38 77 0 2540 0 2541 -36 75 c-57 120 -145 198 -271 241 -50 17 -94 23 -218
27 l-156 5 8 71 c4 39 17 158 28 265 174 1632 999 3174 2265 4231 1552 1296
3601 1760 5555 1259 1742 -447 3229 -1656 4059 -3299 331 -655 548 -1368 640
-2105 21 -171 44 -416 39 -420 -2 -1 -43 -7 -93 -13 -207 -26 -363 -165 -404
-360 -16 -75 -16 -4959 0 -5034 40 -188 198 -333 389 -358 99 -12 506 -12 595
0 104 15 193 61 263 134 65 67 91 112 116 195 15 50 16 285 16 2547 0 2448 0
2493 -20 2555 -65 212 -245 329 -506 329 l-72 0 -5 378 c-5 394 -17 546 -62
853 -101 676 -300 1295 -616 1919 -502 992 -1264 1843 -2215 2474 l-101 67 -6
58 c-25 240 -234 510 -557 720 -556 360 -1492 611 -2500 670 -255 15 -604 20
-835 11z"/>
<path d="M2948 12504 c-523 -94 -928 -505 -1013 -1027 -13 -79 -15 -328 -15
-1733 0 -1451 2 -1651 16 -1735 88 -525 494 -932 1021 -1024 57 -10 154 -15
289 -15 l204 0 0 2775 0 2775 -212 -1 c-134 0 -241 -6 -290 -15z"/>
<path d="M18030 9745 l0 -2775 238 0 c267 0 371 12 517 61 397 133 709 466
811 867 44 175 45 219 42 1922 l-4 1615 -22 99 c-102 445 -406 784 -830 926
-142 48 -248 60 -514 60 l-238 0 0 -2775z"/>
<path d="M6269 12206 c-127 -45 -226 -136 -287 -264 l-37 -77 0 -3636 0 -3636
42 -84 c54 -109 130 -184 240 -237 l78 -37 624 -3 c688 -3 672 -4 794 61 67
35 157 127 192 198 59 115 55 -158 55 3739 0 3179 -2 3582 -15 3635 -37 142
-134 257 -272 323 l-78 37 -635 2 -635 3 -66 -24z"/>
<path d="M8528 12211 c-152 -49 -272 -169 -318 -320 -20 -62 -20 -113 -20
-3660 0 -3262 1 -3602 16 -3652 47 -160 196 -302 355 -338 27 -7 276 -11 645
-11 523 0 607 2 655 16 177 53 311 196 348 372 16 75 16 7149 0 7224 -37 177
-180 328 -354 374 -39 11 -181 14 -660 13 -562 0 -614 -2 -667 -18z"/>
<path d="M10770 12211 c-155 -50 -258 -148 -321 -306 l-24 -60 -3 -3580 c-1
-2398 1 -3598 8 -3635 13 -70 67 -183 114 -237 51 -58 146 -119 223 -143 62
-19 92 -20 673 -20 576 0 611 1 671 20 173 53 309 210 338 390 15 90 15 7089
0 7180 -28 180 -163 337 -336 390 -62 19 -92 20 -677 19 -557 0 -616 -2 -666
-18z"/>
<path d="M14343 12216 c-156 -38 -287 -153 -343 -302 -27 -72 -1300 -7017
-1300 -7092 0 -195 130 -382 314 -451 75 -28 1138 -221 1217 -221 211 1 397
138 460 340 11 36 305 1624 654 3529 460 2507 635 3483 635 3535 0 204 -130
389 -322 455 -75 27 -1145 221 -1210 220 -29 0 -76 -6 -105 -13z"/>
</g>
</svg>
